<svg xmlns="http://www.w3.org/2000/svg" xmlns:xlink="http://www.w3.org/1999/xlink" viewBox="0 0 558.73 236.94"><defs><style>.cls-1{fill:none;}.cls-2{isolation:isolate;}.cls-3{fill:#686868;}.cls-4{fill:#909090;}.cls-5{fill:#b4b4b4;}.cls-6{fill:#828282;}.cls-7{fill:#dfdfdf;}.cls-8{fill:#b2b2b2;}.cls-9{fill:#6f6f6f;}.cls-10{fill:#878787;}.cls-11{fill:#666;}.cls-12{clip-path:url(#clip-path);}.cls-13{fill:#858585;}.cls-14{clip-path:url(#clip-path-2);}.cls-15{fill:#6a6a6a;}.cls-16{fill:#8b8b8b;}.cls-17{clip-path:url(#clip-path-3);}.cls-18{fill:gray;}.cls-19{fill:#8a8a8a;}.cls-20{clip-path:url(#clip-path-4);}.cls-21{fill:#838383;}.cls-22{fill:#7e7e7e;}.cls-23{clip-path:url(#clip-path-5);}.cls-24{fill:#9e9e9e;}.cls-25{fill:#a3a3a3;}.cls-26{fill:#a8a8a8;}.cls-27{clip-path:url(#clip-path-6);}.cls-28{clip-path:url(#clip-path-7);}.cls-29{fill:#6e6e6e;}.cls-30{clip-path:url(#clip-path-8);}.cls-31{clip-path:url(#clip-path-9);}.cls-32{fill:#727272;}.cls-33{fill:#767676;}.cls-34{fill:#7a7a7a;}.cls-35{clip-path:url(#clip-path-10);}.cls-36{fill:#8f8f8f;}.cls-37{fill:#949494;}.cls-38{fill:#999;}.cls-39{clip-path:url(#clip-path-11);}.cls-40{clip-path:url(#clip-path-12);}.cls-41{fill:#676767;}.cls-42{fill:#818181;}.cls-43{fill:#aeaeae;}.cls-44{clip-path:url(#clip-path-13);}.cls-45{clip-path:url(#clip-path-14);}.cls-46{clip-path:url(#clip-path-15);}.cls-47{clip-path:url(#clip-path-16);}.cls-48{clip-path:url(#clip-path-17);}.cls-49{fill:#707070;}.cls-50{clip-path:url(#clip-path-18);}.cls-51{fill:#696969;}.cls-52{clip-path:url(#clip-path-19);}.cls-53{clip-path:url(#clip-path-20);}.cls-54{clip-path:url(#clip-path-21);}.cls-55{clip-path:url(#clip-path-22);}.cls-56{clip-path:url(#clip-path-23);}.cls-57{clip-path:url(#clip-path-24);}.cls-58{clip-path:url(#clip-path-25);}.cls-59{clip-path:url(#clip-path-26);}.cls-60{clip-path:url(#clip-path-27);}.cls-61{clip-path:url(#clip-path-28);}.cls-62{clip-path:url(#clip-path-29);}.cls-63{clip-path:url(#clip-path-30);}.cls-64{clip-path:url(#clip-path-31);}.cls-65{clip-path:url(#clip-path-32);}</style><clipPath id="clip-path"><path class="cls-1" d="M164.82,197.5,142,185.1c3.19-17.93,8.14-38.23,12.53-55.85l22.79,12.4C173,159.27,168,179.57,164.82,197.5Z"/></clipPath><clipPath id="clip-path-2"><path class="cls-1" d="M164.21,196l-22.79-12.4c3.19-17.61,8-37.31,12.27-54.47l22.8,12.4C172.21,158.67,167.41,178.37,164.21,196Z"/></clipPath><clipPath id="clip-path-3"><path class="cls-1" d="M163.61,197.68l-22.79-12.4c-3.07-15.84-7.26-32.33-12.63-52.22L151,145.46C156.35,165.35,160.55,181.84,163.61,197.68Z"/></clipPath><clipPath id="clip-path-4"><path class="cls-1" d="M80.12,231.39,57.33,219c13.86-2.12,24.25-7.11,29.5-11.16l22.79,12.4C104.38,224.28,94,229.27,80.12,231.39Z"/></clipPath><clipPath id="clip-path-5"><path class="cls-1" d="M60.24,203.8c8.6-1.32,17.59-4.89,23.63-9.38l22.79,12.4c-6,4.49-15,8.06-23.63,9.38l-.57.08c-8.71,1.22-16.48,0-23-3.51L36.7,200.38c6.49,3.52,14.25,4.73,23,3.5Z"/></clipPath><clipPath id="clip-path-6"><path class="cls-1" d="M59.83,212,37,199.56c6.26,3.4,13.81,4.6,22.49,3.38l.7-.1c8.71-1.33,17.8-5,23.71-9.58l22.79,12.4c-5.91,4.58-15,8.25-23.7,9.58l-.71.1C73.65,216.56,66.09,215.36,59.83,212Z"/></clipPath><clipPath id="clip-path-7"><path class="cls-1" d="M50.77,227,28,214.6c8.09,4.4,17.74,6,28.61,4.49l.75-.1,22.79,12.4-.74.1C68.5,233,58.85,231.39,50.77,227Z"/></clipPath><clipPath id="clip-path-8"><path class="cls-1" d="M83,82.45l-22.8-12.4c14.76-2.07,23,1,25.62,2.28l22.79,12.4C106,83.49,97.74,80.38,83,82.45Z"/></clipPath><clipPath id="clip-path-9"><path class="cls-1" d="M59.49,212.78,36.7,200.38a32.07,32.07,0,0,1-9.21-7.59c-7.66-9.1-11.8-23.24-11.95-40.92-.33-37.12,16.66-62.81,44.34-67l.54-.07c8.2-1.16,16-.33,22.19,2.38l22.79,12.4c-6.18-2.71-14-3.54-22.19-2.39l-.54.08C55,101.46,38,127.15,38.33,164.27c.15,17.67,4.29,31.82,12,40.92A32.21,32.21,0,0,0,59.49,212.78Z"/></clipPath><clipPath id="clip-path-10"><path class="cls-1" d="M59.24,70.2l.95-.15L83,82.45l-1,.14C62,85.66,45.7,98,35.5,116.37L12.7,104C22.91,85.59,39.15,73.26,59.24,70.2Z"/></clipPath><clipPath id="clip-path-11"><path class="cls-1" d="M12.7,104l2,1.06.29.16,6.35,3.45L24,110.1l2.68,1.45,5.24,2.85,3.63,2c-7.73,13.92-12,31.32-11.81,50.79C24,196.78,34,217.87,50.77,227L28,214.6C11.19,205.47,1.15,184.38.89,154.76.72,135.29,5,117.9,12.7,104Z"/></clipPath><clipPath id="clip-path-12"><path class="cls-1" d="M50.15,227.86l-22.79-12.4a42.07,42.07,0,0,1-10.68-8.31C6,195.72.2,177.65,0,154.89c-.2-22.32,5.37-42.33,16.1-57.85S41.76,71.9,59.23,69.24l1-.14c15.57-2.19,24.08,1.32,26.36,2.48L109.34,84C107.06,82.82,98.55,79.31,83,81.5l-1,.14c-17.47,2.66-32.39,12.28-43.12,27.8S22.6,145,22.8,167.29c.2,22.76,6,40.83,16.67,52.26A42.24,42.24,0,0,0,50.15,227.86Z"/></clipPath><clipPath id="clip-path-13"><path class="cls-1" d="M500.29,139.93l-22.79-12.4C480,113.6,483.61,98,489.12,76.6L511.92,89C506.4,110.41,502.83,126,500.29,139.93Z"/></clipPath><clipPath id="clip-path-14"><path class="cls-1" d="M499.67,138.51l-22.8-12.4c2.47-13.34,6-28.72,11.4-49.66l22.8,12.4C505.66,109.79,502.14,125.17,499.67,138.51Z"/></clipPath><clipPath id="clip-path-15"><path class="cls-1" d="M540.92,95.58l-22.79-12.4c-1-19.65-2.25-44.12-2.24-62.21l22.79,12.4C538.67,51.46,539.91,75.93,540.92,95.58Z"/></clipPath><clipPath id="clip-path-16"><path class="cls-1" d="M540,95.76l-22.79-12.4c-1-19-2.18-42.56-2.24-60.48l22.8,12.4C537.86,53.2,539.06,76.73,540,95.76Z"/></clipPath><clipPath id="clip-path-17"><path class="cls-1" d="M523.43,90.61l-22.79-12.4c5.66-21.2,10.19-39.9,13.86-57.14l22.79,12.4C533.63,50.71,529.09,69.4,523.43,90.61Z"/></clipPath><clipPath id="clip-path-18"><path class="cls-1" d="M499.06,140.12l-22.79-12.4c-2.77-13.45-6.44-27.93-12-47.33l22.79,12.4C492.62,112.19,496.29,126.67,499.06,140.12Z"/></clipPath><clipPath id="clip-path-19"><path class="cls-1" d="M438.23,33l1.89,1,11.27,6.13,2.89,1.57,2.8,1.53,1.36.74,1.31.71c.38.21.84.69,1.27.69,3,14.82,7.2,31.49,13.61,54L451.84,87C445.42,64.48,441.22,47.81,438.23,33Z"/></clipPath><clipPath id="clip-path-20"><path class="cls-1" d="M473.78,99.76,451,87.36c-6.1-21.37-10.2-37.49-13.16-51.77L460.62,48C463.58,62.27,467.68,78.39,473.78,99.76Z"/></clipPath><clipPath id="clip-path-21"><path class="cls-1" d="M438.23,33l-.05-.23L461,45.16l0,.23Z"/></clipPath><clipPath id="clip-path-22"><path class="cls-1" d="M458.13,109.74l-22.8-12.4c.85-22.48,1.46-46.53,1.64-64.32l22.79,12.4C459.58,63.21,459,87.26,458.13,109.74Z"/></clipPath><clipPath id="clip-path-23"><path class="cls-1" d="M364.5,160.69l-22.79-12.4c2.53-13.92,6.1-29.51,11.62-50.93l22.79,12.4C370.6,131.18,367,146.77,364.5,160.69Z"/></clipPath><clipPath id="clip-path-24"><path class="cls-1" d="M363.87,159.28l-22.79-12.4c2.47-13.34,6-28.72,11.4-49.66l22.79,12.4C369.87,130.56,366.34,145.94,363.87,159.28Z"/></clipPath><clipPath id="clip-path-25"><path class="cls-1" d="M405.12,116.35,382.33,104c-1-19.66-2.25-44.12-2.24-62.22l22.79,12.4C402.87,72.22,404.12,96.69,405.12,116.35Z"/></clipPath><clipPath id="clip-path-26"><path class="cls-1" d="M404.23,116.52l-22.79-12.4c-1-19-2.16-42.56-2.23-60.47L402,56.05C402.07,74,403.27,97.5,404.23,116.52Z"/></clipPath><clipPath id="clip-path-27"><path class="cls-1" d="M387.63,111.37,364.84,99c5.67-21.22,10.21-39.92,13.86-57.14l22.8,12.4C397.84,71.45,393.3,90.15,387.63,111.37Z"/></clipPath><clipPath id="clip-path-28"><path class="cls-1" d="M363.27,160.88l-22.79-12.4c-2.77-13.45-6.44-27.93-12-47.33l22.8,12.4C356.83,133,360.5,147.43,363.27,160.88Z"/></clipPath><clipPath id="clip-path-29"><path class="cls-1" d="M302.49,54l22.8,12.4c3,14.76,7.18,31.35,13.55,53.7l-22.79-12.4C309.68,85.39,305.49,68.8,302.49,54Z"/></clipPath><clipPath id="clip-path-30"><path class="cls-1" d="M338,120.52,315.2,108.13C309.1,86.75,305,70.64,302,56.35l22.79,12.4C327.79,83,331.89,99.15,338,120.52Z"/></clipPath><clipPath id="clip-path-31"><path class="cls-1" d="M302.49,54c0-.17-.07-.35-.1-.52l22.79,12.4c0,.17.07.35.11.52Z"/></clipPath><clipPath id="clip-path-32"><path class="cls-1" d="M322.33,130.5l-22.79-12.39c.85-22.49,1.45-46.54,1.63-64.32L324,66.19C323.79,84,323.18,108,322.33,130.5Z"/></clipPath></defs><title>Recurso 2vite</title><g id="Capa_2" data-name="Capa 2"><g id="Capa_1-2" data-name="Capa 1"><g class="cls-2"><polygon class="cls-3" points="296.25 223.07 273.46 210.67 273.37 200.89 296.17 213.29 296.25 223.07"/><polygon class="cls-4" points="212.69 235.84 189.9 223.44 273.46 210.67 296.25 223.07 212.69 235.84"/><polygon class="cls-5" points="212.61 226.07 189.81 213.67 273.37 200.89 296.17 213.29 212.61 226.07"/><polygon class="cls-6" points="212.69 235.84 189.9 223.44 189.81 213.67 212.61 226.07 212.69 235.84"/><polygon class="cls-7" points="296.17 213.29 296.25 223.07 212.69 235.84 212.61 226.07 296.17 213.29"/><polygon class="cls-4" points="211.7 225.25 188.91 212.85 274.25 199.8 297.05 212.2 211.7 225.25"/><polygon class="cls-3" points="211.81 236.94 189.02 224.54 188.91 212.85 211.7 225.25 211.81 236.94"/><path class="cls-8" d="M297.05,212.2l.1,11.69-85.34,13.05-.11-11.69Zm-84.36,23.64,83.56-12.77-.08-9.78-83.56,12.78.08,9.77"/></g><g class="cls-2"><polygon class="cls-4" points="155.94 217.65 133.15 205.25 148.69 202.86 171.48 215.26 155.94 217.65"/><polygon class="cls-9" points="171.48 215.26 148.69 202.86 187.86 52.9 210.66 65.3 171.48 215.26"/><polygon class="cls-10" points="164.75 197.9 141.96 185.5 142.03 185.1 164.82 197.5 164.75 197.9"/><polygon class="cls-5" points="163.68 198.06 140.89 185.66 141.96 185.5 164.75 197.9 163.68 198.06"/><polygon class="cls-11" points="163.68 198.06 140.89 185.66 140.81 185.28 163.61 197.68 163.68 198.06"/><g class="cls-2"><g class="cls-12"><g class="cls-2"><path class="cls-13" d="M164.82,197.5,142,185.1c3.19-17.93,8.14-38.23,12.53-55.85l22.79,12.4C173,159.27,168,179.57,164.82,197.5"/></g></g></g><g class="cls-2"><g class="cls-14"><g class="cls-2"><path class="cls-15" d="M164.21,196l-22.79-12.4c3.19-17.61,8-37.31,12.27-54.47l22.8,12.4c-4.28,17.16-9.08,36.86-12.28,54.47"/></g></g></g><polygon class="cls-5" points="195.88 67.55 173.09 55.15 187.86 52.9 210.66 65.3 195.88 67.55"/><polygon class="cls-16" points="177.34 141.65 154.55 129.25 173.09 55.15 195.88 67.55 177.34 141.65"/><polygon class="cls-4" points="195.2 66.69 172.41 54.29 189.06 51.75 211.85 64.15 195.2 66.69"/><polygon class="cls-9" points="176.49 141.51 153.69 129.11 172.41 54.29 195.2 66.69 176.49 141.51"/><g class="cls-2"><g class="cls-17"><g class="cls-2"><path class="cls-15" d="M163.61,197.68l-22.79-12.4c-3.07-15.84-7.26-32.33-12.63-52.22L151,145.46c5.37,19.89,9.57,36.38,12.63,52.22"/></g></g></g><polygon class="cls-11" points="150.98 145.46 128.19 133.06 109.92 64.81 132.71 77.21 150.98 145.46"/><polygon class="cls-5" points="117.76 79.49 94.97 67.09 109.92 64.81 132.71 77.21 117.76 79.49"/><polygon class="cls-18" points="155.94 217.65 133.15 205.25 94.97 67.09 117.76 79.49 155.94 217.65"/><path class="cls-7" d="M210.66,65.3l-39.18,150-15.54,2.39L117.76,79.49l15-2.28L151,145.46c5.37,19.89,9.57,36.38,12.63,52.22l.07.38,1.07-.16.07-.4c3.19-17.93,8.13-38.23,12.52-55.85l18.54-74.1Z"/><path class="cls-8" d="M195.2,66.69l16.65-2.54-.17.65L172.15,216.12l-16.89,2.59-38.67-140,16.8-2.56,18.45,68.93c5.22,19.33,9.33,35.46,12.37,50.9,3.2-17.61,8-37.31,12.28-54.47ZM171.48,215.26l39.17-150-14.77,2.25-18.54,74.1C173,159.27,168,179.57,164.82,197.5l-.07.4-1.07.16-.07-.38c-3.06-15.84-7.26-32.33-12.63-52.22L132.71,77.21l-15,2.28,38.18,138.16,15.54-2.39"/><polygon class="cls-11" points="155.26 218.71 132.47 206.31 93.8 66.31 116.59 78.72 155.26 218.71"/><polygon class="cls-4" points="116.59 78.72 93.8 66.31 110.59 63.75 133.39 76.15 116.59 78.72"/></g><g class="cls-2"><polygon class="cls-11" points="109.62 220.23 86.83 207.83 83.87 194.42 106.66 206.82 109.62 220.23"/><polygon class="cls-19" points="106.73 205.66 83.94 193.26 84.46 192.86 107.26 205.25 106.73 205.66"/><g class="cls-2"><g class="cls-20"><g class="cls-2"><path class="cls-10" d="M80.12,231.39,57.33,219a78.25,78.25,0,0,0,21.33-6.32l22.79,12.4a78.25,78.25,0,0,1-21.33,6.32"/><path class="cls-21" d="M101.45,225.07l-22.79-12.4a48.59,48.59,0,0,0,6.86-3.88l22.79,12.4a48.59,48.59,0,0,1-6.86,3.88"/><path class="cls-22" d="M108.31,221.19l-22.79-12.4,1.31-1,22.79,12.4c-.4.31-.84.63-1.31,1"/></g></g></g><g class="cls-2"><g class="cls-23"><g class="cls-2"><path class="cls-24" d="M59.49,212.78,36.7,200.38c.37.2.75.39,1.13.58l22.79,12.4-1.13-.58"/><path class="cls-25" d="M60.62,213.36,37.83,201a31.69,31.69,0,0,0,6.09,2.25l22.79,12.4a31.69,31.69,0,0,1-6.09-2.25"/><path class="cls-26" d="M66.71,215.61l-22.79-12.4a40.22,40.22,0,0,0,15.75.67l.57-.08a59.8,59.8,0,0,0,16-4.91l22.8,12.4a59.87,59.87,0,0,1-16,4.91l-.57.08a40.23,40.23,0,0,1-15.75-.67"/><path class="cls-25" d="M99.08,211.29l-22.8-12.4a46.37,46.37,0,0,0,6.58-3.75l22.79,12.4a46.25,46.25,0,0,1-6.57,3.75"/><path class="cls-24" d="M105.65,207.54l-22.79-12.4,1-.72,22.79,12.4-1,.72"/></g></g></g><g class="cls-2"><g class="cls-27"><g class="cls-2"><path class="cls-22" d="M59.83,212,37,199.56l1.1.57,22.79,12.4-1.1-.57"/><path class="cls-21" d="M60.93,212.53l-22.79-12.4a30.42,30.42,0,0,0,5.93,2.18l22.79,12.4a30.42,30.42,0,0,1-5.93-2.18"/><path class="cls-10" d="M66.86,214.71l-22.79-12.4a39.45,39.45,0,0,0,15.46.63l.7-.1A58.48,58.48,0,0,0,76,198l22.8,12.4A58.59,58.59,0,0,1,83,215.24l-.71.1a39.45,39.45,0,0,1-15.46-.63"/><path class="cls-21" d="M98.81,210.41,76,198a44.93,44.93,0,0,0,6.44-3.66l22.79,12.4a44.81,44.81,0,0,1-6.43,3.66"/><path class="cls-22" d="M105.24,206.75l-22.79-12.4c.51-.36,1-.72,1.49-1.09l22.79,12.4c-.47.37-1,.73-1.49,1.09"/></g></g></g><g class="cls-2"><g class="cls-28"><g class="cls-2"><path class="cls-22" d="M50.77,227,28,214.6l1.47.76,22.79,12.4c-.49-.25-1-.5-1.46-.76"/><path class="cls-21" d="M52.23,227.76l-22.79-12.4a41.42,41.42,0,0,0,7.81,2.88L60,230.64a41.42,41.42,0,0,1-7.81-2.88"/><path class="cls-10" d="M60,230.64l-22.79-12.4a49.42,49.42,0,0,0,19.33.85l.75-.1,22.79,12.4-.74.1A49.66,49.66,0,0,1,60,230.64"/></g></g></g><polygon class="cls-29" points="105.4 99.54 82.61 87.14 85.81 72.33 108.6 84.73 105.4 99.54"/><g class="cls-2"><g class="cls-30"><g class="cls-2"><path class="cls-26" d="M83,82.45l-22.8-12.4c9.75-1.37,16.67-.48,21,.64L104,83.09c-4.32-1.12-11.24-2-21-.64"/><path class="cls-25" d="M104,83.09l-22.8-12.4a26,26,0,0,1,4.64,1.64l22.79,12.4A26.08,26.08,0,0,0,104,83.09"/></g></g></g><g class="cls-2"><g class="cls-31"><g class="cls-2"><path class="cls-15" d="M59.49,212.78,36.7,200.38a32.07,32.07,0,0,1-9.21-7.59c-7.66-9.1-11.8-23.24-11.95-40.92-.11-12.29,1.68-23.32,5.12-32.74l22.8,12.4C40,141,38.22,152,38.33,164.27c.15,17.67,4.29,31.82,12,40.92a32.21,32.21,0,0,0,9.21,7.59"/><path class="cls-29" d="M43.46,131.53l-22.8-12.4a67.59,67.59,0,0,1,3.81-8.53L47.26,123a66.16,66.16,0,0,0-3.8,8.53"/><path class="cls-32" d="M47.26,123,24.47,110.6A58.75,58.75,0,0,1,28,104.8l22.79,12.4a58.75,58.75,0,0,0-3.57,5.8"/><path class="cls-33" d="M50.83,117.2,28,104.8a50,50,0,0,1,3.62-4.61l22.8,12.4a50.48,50.48,0,0,0-3.63,4.61"/><path class="cls-34" d="M54.46,112.59l-22.8-12.4a49.51,49.51,0,0,1,3.94-4l22.8,12.4a46.4,46.4,0,0,0-3.94,4"/><path class="cls-22" d="M58.4,108.6,35.6,96.2a48.62,48.62,0,0,1,4.68-3.69l22.79,12.4a47.3,47.3,0,0,0-4.67,3.69"/><path class="cls-21" d="M63.07,104.91,40.28,92.51a44.37,44.37,0,0,1,6.53-3.75l22.79,12.4a45.43,45.43,0,0,0-6.53,3.75"/><path class="cls-10" d="M69.6,101.16,46.81,88.76a47.82,47.82,0,0,1,13.07-3.93l.54-.07a44.81,44.81,0,0,1,17.42.74l22.8,12.4a45.06,45.06,0,0,0-17.43-.75l-.54.08a47.82,47.82,0,0,0-13.07,3.93"/><path class="cls-21" d="M100.64,97.9,77.84,85.5a31.14,31.14,0,0,1,4.77,1.64l22.79,12.4a31,31,0,0,0-4.76-1.64"/></g></g></g><g class="cls-2"><g class="cls-35"><g class="cls-2"><path class="cls-36" d="M35,117.37,12.16,105A76.89,76.89,0,0,1,17,97.09l22.79,12.4A80.58,80.58,0,0,0,35,117.37"/><path class="cls-37" d="M39.8,109.49,17,97.09A71.38,71.38,0,0,1,22,90.8l22.79,12.4a71.38,71.38,0,0,0-5,6.29"/><path class="cls-38" d="M44.75,103.2,22,90.8a66.3,66.3,0,0,1,5.4-5.46l22.79,12.4a66.3,66.3,0,0,0-5.4,5.46"/><path class="cls-24" d="M50.15,97.74,27.36,85.34a61.59,61.59,0,0,1,6.39-5l22.79,12.4a61.59,61.59,0,0,0-6.39,5"/><path class="cls-25" d="M56.54,92.69,33.75,80.29a59.75,59.75,0,0,1,8.75-5l22.79,12.4a60.27,60.27,0,0,0-8.75,5"/><path class="cls-26" d="M65.29,87.66,42.5,75.26A60.9,60.9,0,0,1,59.24,70.2l.95-.15L83,82.45l-1,.14a61.26,61.26,0,0,0-16.74,5.07"/></g></g></g><g class="cls-2"><g class="cls-39"><g class="cls-2"><path class="cls-13" d="M50.77,227,28,214.6C11.18,205.47,1.15,184.38.89,154.76a109.48,109.48,0,0,1,6.28-38.62L30,128.54a109.48,109.48,0,0,0-6.27,38.62C24,196.78,34,217.86,50.77,227"/><path class="cls-19" d="M30,128.54,7.17,116.14a85.65,85.65,0,0,1,5-11.17L35,117.37a88.41,88.41,0,0,0-5,11.17"/><path class="cls-36" d="M35,117.37,12.16,105A76.89,76.89,0,0,1,17,97.09l22.79,12.4A80.58,80.58,0,0,0,35,117.37"/></g></g></g><g class="cls-2"><g class="cls-40"><g class="cls-2"><path class="cls-15" d="M50.15,227.86l-22.79-12.4a42.07,42.07,0,0,1-10.68-8.31C6,195.72.2,177.65,0,154.89a109.38,109.38,0,0,1,6.31-38.8l22.79,12.4a109.61,109.61,0,0,0-6.31,38.8c.2,22.76,6,40.83,16.67,52.26a42.24,42.24,0,0,0,10.68,8.31"/><path class="cls-29" d="M29.11,128.49,6.32,116.09a88,88,0,0,1,5.08-11.34l22.79,12.4a88,88,0,0,0-5.08,11.34"/><path class="cls-32" d="M34.19,117.15,11.4,104.75A82.18,82.18,0,0,1,16.11,97c.1-.14.2-.27.29-.41L39.2,109c-.1.13-.2.27-.29.41a80.2,80.2,0,0,0-4.72,7.71"/><path class="cls-33" d="M39.2,109,16.4,96.63a73.46,73.46,0,0,1,5.15-6.54l22.79,12.4A73.38,73.38,0,0,0,39.2,109"/><path class="cls-34" d="M44.34,102.49,21.55,90.09a67.56,67.56,0,0,1,5.51-5.58l22.79,12.4a70.88,70.88,0,0,0-5.51,5.58"/><path class="cls-22" d="M49.85,96.91,27.06,84.51a65.63,65.63,0,0,1,6.42-5.08l22.8,12.4a65.75,65.75,0,0,0-6.43,5.08"/><path class="cls-21" d="M56.28,91.83l-22.8-12.4a62.26,62.26,0,0,1,8.73-5L65,86.8a60.2,60.2,0,0,0-8.73,5"/><path class="cls-10" d="M65,86.8,42.21,74.4a61.19,61.19,0,0,1,17-5.16l1-.14c9.87-1.39,16.91-.49,21.31.66l22.8,12.4C99.89,81,92.86,80.11,83,81.5l-1,.14A61,61,0,0,0,65,86.8"/><path class="cls-21" d="M104.3,82.16,81.5,69.76a26.25,26.25,0,0,1,4.89,1.74l22.79,12.4a26.07,26.07,0,0,0-4.88-1.74"/><path class="cls-22" d="M109.18,83.9,86.39,71.5l.16.08L109.34,84l-.16-.08"/></g></g></g><path class="cls-8" d="M107.26,205.26l3.38,15.29c-5.53,4.39-16.23,9.61-30.51,11.79l-.75.11c-16.09,2.26-29.87-2.19-39.91-12.9C28.76,208.12,23,190.05,22.8,167.29,22.6,145,28.17,125,38.91,109.44S64.56,84.3,82,81.64l1-.14c15.57-2.19,24.08,1.32,26.36,2.48L106,100.9l-.51-.23c-6.1-2.82-14-3.72-22.18-2.57l-.62.09c-27.13,4.15-43.78,29.41-43.46,65.95.32,35.83,16.42,55,43.1,51.2l.71-.1c8.71-1.33,17.79-5,23.7-9.58ZM80.12,231.39c13.86-2.12,24.26-7.11,29.5-11.16l-3-13.41c-6,4.49-15,8.06-23.63,9.38l-.57.08c-13.35,1.88-24.47-1.94-32.18-11.09s-11.8-23.25-12-40.92C38,127.15,55,101.46,82.67,97.23l.54-.08c8.2-1.15,16-.32,22.19,2.39l3.2-14.81C106,83.48,97.74,80.38,83,82.45l-1,.14C46.74,88,23.29,122,23.69,167.16c.38,43.87,22.21,69,55.69,64.33l.74-.1"/><path class="cls-7" d="M83,82.45c14.75-2.07,23,1,25.61,2.28l-3.2,14.81c-6.18-2.71-14-3.54-22.19-2.39l-.54.08C55,101.46,38,127.15,38.33,164.27c.15,17.68,4.29,31.82,12,40.92s18.83,13,32.18,11.09l.57-.08c8.61-1.32,17.59-4.89,23.63-9.38l3,13.41c-5.24,4.05-15.64,9-29.5,11.16l-.74.1C45.9,236.2,24.07,211,23.69,167.16,23.29,122,46.74,88,82,82.59Z"/></g><g class="cls-2"><polygon class="cls-4" points="544.32 158.26 521.52 145.87 534.99 143.8 557.78 156.2 544.32 158.26"/><polygon class="cls-41" points="557.78 156.2 534.99 143.8 526.69 1.08 549.48 13.48 557.78 156.2"/><polygon class="cls-42" points="544.32 158.26 521.52 145.87 518.13 83.18 540.92 95.58 544.32 158.26"/><polygon class="cls-41" points="543.48 159.35 520.69 146.95 517.24 83.36 540.03 95.76 543.48 159.35"/><polygon class="cls-4" points="493.56 165.17 470.76 152.77 481.24 151.16 504.03 163.56 493.56 165.17"/><polygon class="cls-9" points="504.03 163.56 481.24 151.16 500.64 78.21 523.43 90.61 504.03 163.56"/><polygon class="cls-43" points="498.99 139.75 476.19 127.35 477.5 127.53 500.29 139.93 498.99 139.75"/><g class="cls-2"><g class="cls-44"><g class="cls-2"><path class="cls-13" d="M500.29,139.93l-22.79-12.4C480,113.6,483.61,98,489.12,76.6L511.92,89c-5.52,21.41-9.09,37-11.63,50.93"/></g></g></g><g class="cls-2"><g class="cls-45"><g class="cls-2"><path class="cls-15" d="M499.67,138.51l-22.8-12.4c2.47-13.34,6-28.72,11.4-49.66l22.8,12.4c-5.41,20.94-8.93,36.32-11.4,49.66"/></g></g></g><g class="cls-2"><g class="cls-46"><g class="cls-2"><path class="cls-13" d="M540.92,95.58l-22.79-12.4c-1-19.65-2.25-44.12-2.24-62.21l22.79,12.4c0,18.09,1.23,42.56,2.24,62.21"/></g></g></g><g class="cls-2"><g class="cls-47"><g class="cls-2"><path class="cls-15" d="M540,95.76l-22.79-12.4c-1-19-2.18-42.56-2.24-60.48l22.8,12.4c.06,17.92,1.26,41.45,2.23,60.48"/></g></g></g><polygon class="cls-6" points="538.68 33.37 515.89 20.97 515.89 20.49 538.68 32.89 538.68 33.37"/><polygon class="cls-4" points="537.29 33.47 514.5 21.07 515.89 20.49 538.68 32.89 537.29 33.47"/><g class="cls-2"><g class="cls-48"><g class="cls-2"><path class="cls-15" d="M523.43,90.61l-22.79-12.4c5.66-21.2,10.19-39.9,13.86-57.14l22.79,12.4c-3.66,17.24-8.2,35.93-13.86,57.14"/></g></g></g><polygon class="cls-16" points="511.92 89 489.12 76.6 508.69 3.84 531.48 16.24 511.92 89"/><polygon class="cls-5" points="531.48 16.24 508.69 3.84 526.69 1.08 549.48 13.48 531.48 16.24"/><polygon class="cls-4" points="530.82 15.38 508.02 2.98 527.52 0 550.31 12.4 530.82 15.38"/><polygon class="cls-49" points="511.07 88.85 488.27 76.45 508.02 2.98 530.82 15.38 511.07 88.85"/><g class="cls-2"><g class="cls-50"><g class="cls-2"><path class="cls-15" d="M499.06,140.12l-22.79-12.4c-2.77-13.45-6.44-27.93-12-47.33l22.79,12.4c5.54,19.4,9.21,33.88,12,47.33"/></g></g></g><polygon class="cls-4" points="442.52 173.82 419.73 161.43 432.86 159.42 455.65 171.82 442.52 173.82"/><polygon class="cls-18" points="493.56 165.17 470.76 152.77 451.84 86.98 474.63 99.38 493.56 165.17"/><polygon class="cls-11" points="492.89 166.23 470.1 153.83 450.99 87.36 473.79 99.76 492.89 166.23"/><polygon class="cls-51" points="455.65 171.82 432.86 159.42 435.33 97.34 458.13 109.74 455.65 171.82"/><polygon class="cls-11" points="487.08 92.79 464.29 80.39 444.35 13.68 467.15 26.08 487.08 92.79"/><g class="cls-2"><g class="cls-52"><g class="cls-2"><path class="cls-13" d="M474.63,99.38,451.84,87c-6.45-22.62-10.66-39.35-13.66-54.22L461,45.16c3,14.87,7.2,31.59,13.65,54.22"/></g></g></g><g class="cls-2"><g class="cls-53"><g class="cls-2"><path class="cls-15" d="M473.78,99.76,451,87.36c-6.1-21.37-10.2-37.49-13.16-51.77L460.62,48c3,14.28,7.06,30.4,13.16,51.77"/></g></g></g><g class="cls-2"><g class="cls-54"><g class="cls-2"><path class="cls-13" d="M474.63,99.38,451.84,87c-6.45-22.62-10.66-39.35-13.66-54.22L461,45.16c3,14.87,7.2,31.59,13.65,54.22"/></g></g></g><g class="cls-2"><g class="cls-55"><g class="cls-2"><path class="cls-15" d="M458.13,109.74l-22.8-12.4c.85-22.48,1.46-46.53,1.64-64.32l22.79,12.4c-.18,17.79-.79,41.84-1.63,64.32"/></g></g></g><polygon class="cls-3" points="459.76 45.42 436.97 33.02 436.97 32.55 459.76 44.95 459.76 45.42"/><polygon class="cls-4" points="459.76 44.95 436.97 32.55 438.1 32.38 460.9 44.78 459.76 44.95"/><polygon class="cls-21" points="442.52 173.82 419.73 161.43 426.35 16.43 449.15 28.83 442.52 173.82"/><polygon class="cls-5" points="449.15 28.83 426.35 16.43 444.35 13.68 467.15 26.08 449.15 28.83"/><path class="cls-7" d="M549.48,13.48l8.3,142.72-13.46,2.06-3.4-62.68c-1-19.65-2.25-44.12-2.24-62.21v-.48l-1.31.2c-3.74,17.62-8.28,36.31-13.94,57.52l-19.4,73-10.47,1.61L474.63,99.38C468.18,76.75,464,60,461,45.16L459.76,45v.47c-.18,17.79-.79,41.84-1.63,64.32l-2.48,62.08-13.13,2,6.63-145,18-2.75,19.93,66.71c5.54,19.4,9.21,33.88,11.9,47l1.31.18C502.83,126,506.4,110.41,511.92,89l19.56-72.76Z"/><path class="cls-8" d="M550.31,12.4,558.73,157l-15.25,2.33L540,95.76c-1-19-2.17-42.56-2.23-60.48-3.62,16.79-8,35-13.52,55.49L504.7,164.42l-11.81,1.81L473.78,99.76c-6.1-21.37-10.2-37.49-13.16-51.77-.21,17.48-.8,40.28-1.6,61.67l-2.52,63-14.91,2.27L448.3,28l19.5-3,20.13,67.37c5.42,19,9.06,33.26,11.74,46.12,2.47-13.34,6-28.72,11.4-49.66l19.75-73.47Zm-9.39,83.18,3.4,62.68,13.46-2.06-8.3-142.72-18,2.76L511.92,89c-5.52,21.41-9.09,37-11.56,50.54l-1.3.58c-2.77-13.45-6.44-27.93-12-47.33L467.15,26.08l-18,2.75-6.63,145,13.13-2,2.48-62.08c.84-22.48,1.45-46.53,1.63-64.32V45l1.14-.17c3.07,15.25,7.28,32,13.73,54.6l18.93,65.79L504,163.56l19.4-72.95c5.66-21.21,10.2-39.9,13.86-57.14l1.39-.58v.48c0,18.09,1.23,42.56,2.24,62.21"/><polygon class="cls-51" points="441.59 174.92 418.8 162.53 425.51 15.6 448.3 28 441.59 174.92"/><polygon class="cls-4" points="448.3 28 425.51 15.6 445 12.62 467.8 25.02 448.3 28"/></g><g class="cls-2"><polygon class="cls-4" points="408.53 179.03 385.74 166.63 399.19 164.56 421.99 176.96 408.53 179.03"/><polygon class="cls-41" points="421.99 176.96 399.19 164.56 390.89 21.85 413.68 34.25 421.99 176.96"/><polygon class="cls-42" points="408.53 179.03 385.74 166.63 382.33 103.95 405.12 116.34 408.53 179.03"/><polygon class="cls-41" points="407.69 180.11 384.89 167.71 381.44 104.12 404.23 116.52 407.69 180.11"/><polygon class="cls-4" points="357.76 185.93 334.97 173.53 345.45 171.93 368.25 184.32 357.76 185.93"/><polygon class="cls-9" points="368.25 184.32 345.45 171.93 364.84 98.97 387.63 111.37 368.25 184.32"/><polygon class="cls-43" points="363.19 160.51 340.4 148.11 341.71 148.29 364.5 160.69 363.19 160.51"/><g class="cls-2"><g class="cls-56"><g class="cls-2"><path class="cls-13" d="M364.5,160.69l-22.79-12.4c2.53-13.92,6.1-29.51,11.62-50.93l22.79,12.4c-5.52,21.42-9.09,37-11.62,50.93"/></g></g></g><g class="cls-2"><g class="cls-57"><g class="cls-2"><path class="cls-15" d="M363.87,159.28l-22.79-12.4c2.47-13.34,6-28.72,11.4-49.66l22.79,12.4c-5.4,20.94-8.93,36.32-11.4,49.66"/></g></g></g><g class="cls-2"><g class="cls-58"><g class="cls-2"><path class="cls-13" d="M405.12,116.35,382.33,104c-1-19.66-2.25-44.12-2.24-62.22l22.79,12.4c0,18.09,1.24,42.56,2.24,62.22"/></g></g></g><g class="cls-2"><g class="cls-59"><g class="cls-2"><path class="cls-15" d="M404.23,116.52l-22.79-12.4c-1-19-2.16-42.56-2.23-60.47L402,56.05c.07,17.91,1.27,41.45,2.23,60.47"/></g></g></g><polygon class="cls-6" points="402.88 54.13 380.09 41.73 380.09 41.25 402.88 53.65 402.88 54.13"/><polygon class="cls-4" points="401.5 54.23 378.7 41.83 380.09 41.25 402.88 53.65 401.5 54.23"/><g class="cls-2"><g class="cls-60"><g class="cls-2"><path class="cls-15" d="M387.63,111.37,364.84,99c5.67-21.22,10.21-39.92,13.86-57.14l22.8,12.4c-3.66,17.22-8.2,35.92-13.87,57.14"/></g></g></g><polygon class="cls-16" points="376.12 109.76 353.33 97.36 372.89 24.6 395.68 37 376.12 109.76"/><polygon class="cls-5" points="395.68 37 372.89 24.6 390.89 21.85 413.68 34.25 395.68 37"/><polygon class="cls-4" points="395.02 36.14 372.23 23.74 391.73 20.76 414.52 33.16 395.02 36.14"/><polygon class="cls-49" points="375.27 109.61 352.48 97.22 372.23 23.74 395.02 36.14 375.27 109.61"/><g class="cls-2"><g class="cls-61"><g class="cls-2"><path class="cls-15" d="M363.27,160.88l-22.79-12.4c-2.77-13.45-6.44-27.93-12-47.33l22.8,12.4c5.54,19.4,9.21,33.88,12,47.33"/></g></g></g><polygon class="cls-4" points="306.73 194.59 283.94 182.19 297.06 180.18 319.85 192.58 306.73 194.59"/><polygon class="cls-18" points="357.76 185.93 334.97 173.53 316.05 107.74 338.84 120.14 357.76 185.93"/><polygon class="cls-11" points="357.1 186.99 334.31 174.59 315.2 108.13 337.99 120.53 357.1 186.99"/><polygon class="cls-51" points="319.85 192.58 297.06 180.18 299.54 118.11 322.33 130.5 319.85 192.58"/><polygon class="cls-11" points="351.29 113.55 328.49 101.15 308.56 34.44 331.35 46.84 351.29 113.55"/><g class="cls-2"><g class="cls-62"><g class="cls-2"><path class="cls-13" d="M338.84,120.14l-22.79-12.4c-6.45-22.62-10.66-39.34-13.66-54.22l22.79,12.4c3,14.88,7.21,31.6,13.66,54.22"/></g></g></g><g class="cls-2"><g class="cls-63"><g class="cls-2"><path class="cls-15" d="M338,120.52,315.2,108.13C309.1,86.75,305,70.64,302,56.35l22.79,12.4c3,14.29,7.07,30.4,13.17,51.77"/></g></g></g><g class="cls-2"><g class="cls-64"><g class="cls-2"><path class="cls-13" d="M338.84,120.14l-22.79-12.4c-6.45-22.62-10.66-39.34-13.66-54.22l22.79,12.4c3,14.88,7.21,31.6,13.66,54.22"/></g></g></g><g class="cls-2"><g class="cls-65"><g class="cls-2"><path class="cls-15" d="M322.33,130.5l-22.79-12.39c.85-22.49,1.45-46.54,1.63-64.32L324,66.19c-.17,17.78-.78,41.83-1.63,64.31"/></g></g></g><polygon class="cls-51" points="323.96 66.19 301.17 53.79 301.18 53.32 323.97 65.72 323.96 66.19"/><polygon class="cls-4" points="323.97 65.72 301.18 53.32 302.32 53.14 325.11 65.54 323.97 65.72"/><polygon class="cls-21" points="306.73 194.59 283.94 182.19 290.56 37.19 313.35 49.59 306.73 194.59"/><polygon class="cls-5" points="313.35 49.59 290.56 37.19 308.56 34.44 331.35 46.84 313.35 49.59"/><path class="cls-7" d="M413.68,34.25,422,177,408.53,179l-3.41-62.68c-1-19.66-2.25-44.13-2.24-62.22v-.48l-1.3.2c-3.74,17.6-8.28,36.3-13.95,57.52l-19.38,72.95-10.49,1.61-18.92-65.79c-6.45-22.62-10.66-39.34-13.66-54.22l-1.21-.2v.47c-.17,17.78-.78,41.83-1.63,64.32l-2.48,62.07-13.12,2,6.62-145,18-2.75,19.94,66.71c5.54,19.4,9.21,33.88,11.9,47l1.31.18c2.53-13.92,6.1-29.51,11.62-50.93L395.68,37Z"/><path class="cls-8" d="M414.52,33.16l8.42,144.62-15.25,2.33-3.46-63.59c-1-19-2.16-42.56-2.23-60.47-3.6,16.77-8,34.94-13.52,55.48l-19.57,73.65L357.1,187,338,120.52c-6.1-21.37-10.2-37.48-13.17-51.77-.21,17.48-.79,40.28-1.6,61.67l-2.51,63-14.92,2.28L312.5,48.76l19.51-3,20.13,67.37c5.42,19,9.06,33.26,11.73,46.13,2.47-13.34,6-28.72,11.4-49.66L395,36.14Zm-9.4,83.19L408.53,179,422,177,413.68,34.25l-18,2.75-19.56,72.76c-5.52,21.42-9.09,37-11.55,50.54l-1.3.58c-2.77-13.45-6.44-27.93-12-47.33L331.35,46.84l-18,2.75-6.62,145,13.12-2,2.48-62.08C323.18,108,323.79,84,324,66.19v-.48l1.14-.17c3.07,15.26,7.28,32,13.73,54.6l18.92,65.79,10.49-1.61,19.38-72.95c5.67-21.22,10.21-39.92,13.87-57.14l1.38-.58v.48c0,18.09,1.24,42.56,2.24,62.22"/><polygon class="cls-51" points="305.79 195.69 283 183.29 289.71 36.36 312.5 48.76 305.79 195.69"/><polygon class="cls-4" points="312.5 48.76 289.71 36.36 309.22 33.38 332.01 45.78 312.5 48.76"/></g></g></g></svg>